<svg width="347" height="347" viewBox="0 0 347 347" fill="none" xmlns="http://www.w3.org/2000/svg">
<g clip-path="url(#clip0_68_148)">
<path fill-rule="evenodd" clip-rule="evenodd" d="M346.67 173.215C346.67 268.879 269.065 346.43 173.335 346.43C77.6047 346.43 0 268.879 0 173.215C0 77.551 77.6047 0 173.335 0C269.065 0 346.67 77.551 346.67 173.215ZM204.951 139.853H237.343C237.186 123.746 232.179 111.158 222.32 102.089C210.897 91.7679 193.84 86.6075 171.15 86.6075C152.372 86.6075 137.506 90.5169 126.553 98.3356C113.877 107.249 107.54 120.384 107.54 137.742C107.54 150.565 111.139 160.416 118.337 167.297C125.692 174.021 137.898 178.947 154.954 182.074L178.427 186.531C190.006 188.72 198.144 191.613 202.838 195.21C207.689 198.806 210.115 203.889 210.115 210.456C210.115 217.18 207.063 222.497 200.96 226.406C195.014 230.159 186.72 232.036 176.079 232.036C152.138 232.036 139.541 223.123 138.289 205.296H104.723C105.662 221.715 111.374 234.538 121.858 243.764C133.907 254.398 151.433 259.714 174.436 259.714C194.623 259.714 210.662 255.57 222.555 247.282C236.325 237.9 243.211 224.217 243.211 206.234C243.211 193.099 239.69 182.934 232.648 175.741C225.606 168.548 214.34 163.466 198.848 160.495L172.559 155.569C160.04 153.223 151.59 150.565 147.208 147.594C142.827 144.622 140.636 140.166 140.636 134.224C140.636 128.125 143.218 123.277 148.382 119.681C153.702 116.084 160.822 114.286 169.742 114.286C192.119 114.286 203.855 122.808 204.951 139.853Z" fill="black"/>
</g>
<defs>
<clipPath id="clip0_68_148">
<rect width="346.67" height="346.43" fill="white"/>
</clipPath>
</defs>
</svg>
